<?xml version="1.0" encoding="UTF-8"?>
<svg width="25px" height="12px" viewBox="0 0 25 12" version="1.1" xmlns="http://www.w3.org/2000/svg" xmlns:xlink="http://www.w3.org/1999/xlink">
    <title>52CBBF98-6022-41B8-9568-3BB488AEED79</title>
    <g id="Page-1" stroke="none" stroke-width="1" fill="none" fill-rule="evenodd">
        <g id="리소스수정" transform="translate(-123.000000, -208.000000)">
            <g id="icon_off" transform="translate(123.000000, 208.000000)">
                <g id="Rectangle-2" fill="#D8D8D8" opacity="0.600000024">
                    <rect id="Rectangle" x="0" y="0" width="25" height="12" rx="6"></rect>
                </g>
                <path d="M7.432,8.664 C8.936,8.664 9.888,7.648 9.888,5.92 L9.888,5.76 C9.888,3.952 8.952,3 7.464,3 C5.96,3 5,4.024 5,5.752 L5,5.912 C5,7.712 5.944,8.664 7.432,8.664 Z M7.456,8.008 C6.312,8.008 5.888,7.16 5.888,5.904 L5.888,5.624 C5.888,4.496 6.376,3.664 7.424,3.664 C8.592,3.672 9,4.504 9,5.768 L9,6.032 C9,7.176 8.504,8.008 7.456,8.008 Z M12.496,8.576 L12.496,6.208 L14.384,6.208 L14.384,5.528 L12.496,5.528 L12.496,3.784 L14.936,3.784 L14.936,3.096 L11.672,3.096 L11.672,8.576 L12.496,8.576 Z M17.496,8.576 L17.496,6.208 L19.384,6.208 L19.384,5.528 L17.496,5.528 L17.496,3.784 L19.936,3.784 L19.936,3.096 L16.672,3.096 L16.672,8.576 L17.496,8.576 Z" id="OFF" fill="#252525" fill-rule="nonzero" opacity="0.400000006"></path>
            </g>
        </g>
    </g>
</svg>