<?xml version="1.0" encoding="UTF-8"?>
<svg width="25px" height="25px" viewBox="0 0 25 25" version="1.1" xmlns="http://www.w3.org/2000/svg" xmlns:xlink="http://www.w3.org/1999/xlink">
    <title>4F9943A7-1BD7-4FB1-952E-9A470EB37930</title>
    <g id="제플린동기화" stroke="none" stroke-width="1" fill="none" fill-rule="evenodd">
        <g id="리소스수정" transform="translate(-85.000000, -161.000000)">
            <g id="로그인아이콘" transform="translate(85.000000, 161.000000)">
                <rect id="Mask-Copy" fill="#F7CF37" opacity="0.81156994" x="0" y="0" width="25" height="25" rx="6"></rect>
                <g id="person-outline" transform="translate(4.687500, 4.687500)" fill="#FFFFFF" fill-rule="nonzero">
                    <path d="M8.09609609,0.8203125 C5.89296052,0.8203125 4.28648189,2.52006955 4.44915857,4.71400098 C4.60369475,6.79588224 6.2302427,8.52782238 8.09609609,8.52782238 C9.96097369,8.52782238 11.5855833,6.79687629 11.7429757,4.71477475 C11.9068685,2.54462987 10.2889867,0.8203125 8.09609609,0.8203125 Z M8.09609609,1.92138534 C9.63398546,1.92138534 10.7393047,3.09942019 10.6234562,4.63339839 C10.5069708,6.17435261 9.33151183,7.42674954 8.09609609,7.42674954 C6.85973875,7.42674954 5.68308295,6.17385231 5.56878782,4.6340907 C5.4533537,3.07729388 6.54582888,1.92138534 8.09609609,1.92138534 Z" id="Path"></path>
                    <path d="M8.09609609,8.10009793 C9.75964316,8.10009793 11.3980488,8.55784239 12.6984627,9.40801638 C14.1198349,10.3372696 15.0703359,12.2952114 15.3717332,13.9333285 L15.3717332,13.9333285 L14.2228049,13.9340979 C13.9626544,12.7092359 13.2810985,11.240029 12.2693835,10.4618055 L12.075839,10.3242147 C10.9654427,9.59826883 9.54410881,9.20117077 8.09609609,9.20117077 C6.64807986,9.20117077 5.22675145,9.5982703 4.11640472,10.3242097 C2.99740304,11.0558076 2.24104186,12.6344978 1.9595404,13.9347985 C1.95871904,13.9385925 1.95800705,13.9423649 1.95740377,13.9461157 L1.93502426,13.9453125 L0.820804945,13.9333546 C1.12201479,12.2952548 2.07241938,10.3372908 3.49376567,9.40802141 C4.79413534,8.55784595 6.4325414,8.10009793 8.09609609,8.10009793 Z" id="Path"></path>
                    <path d="M8.09609609,0.41015625 C10.5278122,0.41015625 12.333827,2.33761284 12.151965,4.74569149 C11.978266,7.0435103 10.1769166,8.93797863 8.09609609,8.93797863 C6.0137775,8.93797863 4.21066182,7.04176602 4.04012521,4.74433018 C3.86010282,2.31646664 5.6505273,0.41015625 8.09609609,0.41015625 Z M8.09609609,1.23046875 C6.12534277,1.23046875 4.7135964,2.73359094 4.8581895,4.68363898 C4.99845163,6.57322308 6.46706833,8.11766613 8.09609609,8.11766613 C9.72377565,8.11766613 11.1910649,6.57452675 11.3339841,4.68388705 C11.4797453,2.75382681 10.0523684,1.23046875 8.09609609,1.23046875 Z M8.09609609,1.51122909 C9.87463418,1.51122909 11.1661259,2.89422063 11.0324456,4.66431513 C10.9020952,6.38868569 9.5766303,7.83690579 8.09609609,7.83690579 C6.61441496,7.83690579 5.28768057,6.38781551 5.15975446,4.66441991 C5.02703412,2.87449318 6.30261263,1.51122909 8.09609609,1.51122909 Z M8.09609609,2.33154159 C6.77813009,2.33154159 5.88047475,3.29090339 5.97781874,4.6037287 C6.07587831,5.92476795 7.0755139,7.01659329 8.09609609,7.01659329 C9.1156121,7.01659329 10.114477,5.92522058 10.2144646,4.60251069 C10.3120926,3.30979537 9.3985608,2.33154159 8.09609609,2.33154159 Z" id="Path"></path>
                    <path d="M8.09609609,8.51025418 C9.69204197,8.51025418 11.2498728,8.95100158 12.4740228,9.75131638 L12.6297671,9.85933782 C13.6074574,10.5767154 14.4158232,11.9164029 14.8154302,13.3492025 L14.8607812,13.5228516 L14.5474219,13.5228516 L14.5027797,13.3543453 C14.1300123,12.0456712 13.4060035,10.807626 12.4969161,10.1195031 L12.3121458,9.98897261 C11.1252069,9.21268569 9.6270058,8.79101452 8.09609609,8.79101452 C6.5651809,8.79101452 5.06698346,9.21268813 3.89195922,9.98091334 L3.72587884,10.0967802 C2.79575764,10.7870179 2.05599726,12.0400163 1.67712678,13.3744429 L1.63488281,13.531875 L1.32890625,13.5285937 L1.38106101,13.3327248 C1.79978915,11.8412132 2.67214991,10.4352276 3.71821117,9.75131774 C4.9423135,8.9510055 6.50014169,8.51025418 8.09609609,8.51025418 Z M1.9498991,14.3558131 L2.30520224,14.3623698 L2.36041029,14.0215826 C2.66189901,12.6289575 3.42799268,11.2643279 4.34085021,10.667506 C5.37862619,9.98901304 6.72053666,9.61132702 8.09609609,9.61132702 C9.47165307,9.61132702 10.8135714,9.98901216 11.8513991,10.6675147 L12.0130659,10.7817779 C12.8474134,11.4136234 13.5437722,12.7119902 13.823644,14.0192076 L13.893074,14.3434997 L15.8718263,14.3434797 L15.7309794,13.6376903 C15.3280208,11.7626118 14.2775302,9.95033382 12.9229025,9.06471638 C11.5618631,8.17490714 9.84774268,7.68994168 8.09609609,7.68994168 C6.3444378,7.68994168 4.63031569,8.17491274 3.26932018,9.06472508 C1.85628306,9.98856198 0.772579077,11.9276364 0.417411565,13.8591796 L0.329319451,14.3382598 L1.9498991,14.3558131 Z" id="Path"></path>
                </g>
            </g>
        </g>
    </g>
</svg>